<svg width="89" height="20" viewBox="0 0 89 20" fill="none" xmlns="http://www.w3.org/2000/svg">
<path d="M4.2662 4.9H5.9822V12.362H10.1162V14H4.2662V4.9ZM14.5962 4.9H20.6802V6.538H18.4962V12.362H20.6802V14H14.5962V12.362H16.7802V6.538H14.5962V4.9ZM27.5001 9.398H31.4001V14H29.8401V12.986H29.6061C29.5021 13.324 29.3028 13.61 29.0081 13.844C28.7135 14.0693 28.2715 14.182 27.6821 14.182C27.2661 14.182 26.8761 14.104 26.5121 13.948C26.1481 13.792 25.8318 13.5623 25.5631 13.259C25.2945 12.947 25.0821 12.5657 24.9261 12.115C24.7701 11.6557 24.6921 11.1227 24.6921 10.516V8.384C24.6921 7.79467 24.7745 7.27467 24.9391 6.824C25.1125 6.36467 25.3465 5.979 25.6411 5.667C25.9445 5.355 26.3041 5.121 26.7201 4.965C27.1361 4.80033 27.5955 4.718 28.0981 4.718C28.6181 4.718 29.0818 4.80467 29.4891 4.978C29.8965 5.14267 30.2431 5.37667 30.5291 5.68C30.8151 5.97467 31.0318 6.32567 31.1791 6.733C31.3265 7.13167 31.4001 7.56067 31.4001 8.02V8.176H29.6841V8.02C29.6841 7.474 29.5411 7.06233 29.2551 6.785C28.9778 6.499 28.5835 6.356 28.0721 6.356C27.5868 6.356 27.1881 6.52067 26.8761 6.85C26.5641 7.17067 26.4081 7.72533 26.4081 8.514V10.438C26.4081 11.842 26.9801 12.544 28.1241 12.544C28.6355 12.544 29.0211 12.4097 29.2811 12.141C29.5498 11.8637 29.6841 11.4953 29.6841 11.036H27.5001V9.398ZM35.3731 4.9H37.0891V8.618H40.0271V4.9H41.7431V14H40.0271V10.256H37.0891V14H35.3731V4.9ZM45.742 4.9H52.294V6.538H49.876V14H48.16V6.538H45.742V4.9Z" fill="white"/>
<path d="M82.5449 6.45511C81.6455 5.55564 80.3756 4.97363 79 4.97363C77.6243 4.97363 76.3545 5.52919 75.455 6.45511C74.5555 7.35459 73.9735 8.62443 73.9735 10.0001C73.9735 11.3757 74.5555 12.6456 75.455 13.5451C76.3545 14.4445 77.6243 15.0265 79 15.0265C80.3756 15.0265 81.6455 14.471 82.5449 13.5451C83.4444 12.6456 84.0264 11.3757 84.0264 10.0001C84.0264 8.62443 83.4709 7.35459 82.5449 6.45511Z" fill="white"/>
<path d="M79 3.4127C79.3703 3.4127 79.6878 3.09524 79.6878 2.72487V0.687831C79.6878 0.31746 79.3703 0 79 0C78.6296 0 78.3121 0.31746 78.3121 0.687831V2.72487C78.3121 3.09524 78.6296 3.4127 79 3.4127Z" fill="white"/>
<path d="M84.6349 5.34386L86.09 3.88883C86.3545 3.62428 86.3545 3.201 86.09 2.93645C85.8254 2.6719 85.4021 2.6719 85.1376 2.93645L83.6825 4.39148C83.418 4.65603 83.418 5.07931 83.6825 5.34386C83.9206 5.60841 84.3439 5.60841 84.6349 5.34386Z" fill="white"/>
<path d="M88.3121 9.31226H86.2751C85.9047 9.31226 85.5873 9.62972 85.5873 10.0001C85.5873 10.3705 85.9047 10.6879 86.2751 10.6879H88.3121C88.6825 10.6879 89 10.3705 89 10.0001C89 9.62972 88.6825 9.31226 88.3121 9.31226Z" fill="white"/>
<path d="M84.6084 14.6562C84.3439 14.3916 83.9206 14.3916 83.6561 14.6562C83.3915 14.9207 83.3915 15.344 83.6561 15.6086L85.1111 17.0636C85.3756 17.3281 85.7989 17.3281 86.0635 17.0636C86.328 16.799 86.328 16.3758 86.0635 16.1112L84.6084 14.6562Z" fill="white"/>
<path d="M79 16.5874C78.6296 16.5874 78.3121 16.9049 78.3121 17.2752V19.3123C78.3121 19.6826 78.6296 20.0001 79 20.0001C79.3703 20.0001 79.6878 19.6826 79.6878 19.3123V17.2752C79.6878 16.9049 79.3703 16.5874 79 16.5874Z" fill="white"/>
<path d="M73.3651 14.6562L71.9101 16.1112C71.6455 16.3758 71.6455 16.799 71.9101 17.0636C72.1746 17.3281 72.5979 17.3281 72.8625 17.0636L74.3175 15.6086C74.582 15.344 74.582 14.9207 74.3175 14.6562C74.0794 14.3916 73.6561 14.3916 73.3651 14.6562Z" fill="white"/>
<path d="M72.4127 10.0001C72.4127 9.62972 72.0952 9.31226 71.7249 9.31226H69.6878C69.3175 9.31226 69 9.62972 69 10.0001C69 10.3705 69.3175 10.6879 69.6878 10.6879H71.7249C72.0952 10.6879 72.4127 10.3705 72.4127 10.0001Z" fill="white"/>
<path d="M73.3651 5.34386C73.6297 5.60841 74.0529 5.60841 74.3175 5.34386C74.582 5.07931 74.582 4.65603 74.3175 4.39148L72.8625 2.93645C72.5979 2.6719 72.1746 2.6719 71.9101 2.93645C71.6455 3.201 71.6455 3.62428 71.9101 3.88883L73.3651 5.34386Z" fill="white"/>
</svg>
